<mxfile host="app.diagrams.net" modified="2020-07-07T02:42:10.186Z" agent="5.0 (Windows NT 6.1; WOW64) AppleWebKit/537.36 (KHTML, like Gecko) Chrome/80.0.3987.87 Safari/537.36" etag="SzjWNpplX1y5wfmNYHK6" version="13.3.9" type="github">
  <diagram id="-oh_q7iKuHGqvnTawkCF" name="Page-1">
    <mxGraphModel dx="1422" dy="762" grid="1" gridSize="10" guides="1" tooltips="1" connect="1" arrows="1" fold="1" page="0" pageScale="1" pageWidth="827" pageHeight="1169" math="0" shadow="0">
      <root>
        <mxCell id="0" />
        <mxCell id="1" parent="0" />
        <mxCell id="A7PrPP81Uj46-MuFtexK-1" value="爱晶客Core" style="whiteSpace=wrap;html=1;aspect=fixed;" vertex="1" parent="1">
          <mxGeometry x="600" y="200" width="80" height="80" as="geometry" />
        </mxCell>
        <mxCell id="A7PrPP81Uj46-MuFtexK-6" style="edgeStyle=orthogonalEdgeStyle;rounded=0;orthogonalLoop=1;jettySize=auto;html=1;exitX=1;exitY=0.5;exitDx=0;exitDy=0;entryX=0;entryY=0.5;entryDx=0;entryDy=0;" edge="1" parent="1" source="A7PrPP81Uj46-MuFtexK-3" target="A7PrPP81Uj46-MuFtexK-18">
          <mxGeometry relative="1" as="geometry">
            <mxPoint x="490" y="250" as="targetPoint" />
          </mxGeometry>
        </mxCell>
        <mxCell id="A7PrPP81Uj46-MuFtexK-3" value="信息审核系统" style="rounded=0;whiteSpace=wrap;html=1;" vertex="1" parent="1">
          <mxGeometry x="320" y="280" width="80" height="40" as="geometry" />
        </mxCell>
        <mxCell id="A7PrPP81Uj46-MuFtexK-5" style="edgeStyle=orthogonalEdgeStyle;rounded=0;orthogonalLoop=1;jettySize=auto;html=1;exitX=1;exitY=0.5;exitDx=0;exitDy=0;entryX=0;entryY=0.5;entryDx=0;entryDy=0;" edge="1" parent="1" source="A7PrPP81Uj46-MuFtexK-4" target="A7PrPP81Uj46-MuFtexK-18">
          <mxGeometry relative="1" as="geometry">
            <mxPoint x="540" y="230" as="targetPoint" />
          </mxGeometry>
        </mxCell>
        <mxCell id="A7PrPP81Uj46-MuFtexK-4" value="记账管理系统" style="rounded=0;whiteSpace=wrap;html=1;" vertex="1" parent="1">
          <mxGeometry x="320" y="160" width="80" height="40" as="geometry" />
        </mxCell>
        <mxCell id="A7PrPP81Uj46-MuFtexK-9" style="edgeStyle=orthogonalEdgeStyle;rounded=0;orthogonalLoop=1;jettySize=auto;html=1;exitX=1;exitY=0.5;exitDx=0;exitDy=0;entryX=0;entryY=0.5;entryDx=0;entryDy=0;" edge="1" parent="1" source="A7PrPP81Uj46-MuFtexK-7" target="A7PrPP81Uj46-MuFtexK-4">
          <mxGeometry relative="1" as="geometry" />
        </mxCell>
        <mxCell id="A7PrPP81Uj46-MuFtexK-7" value="账户验证" style="rounded=0;whiteSpace=wrap;html=1;" vertex="1" parent="1">
          <mxGeometry x="200" y="160" width="80" height="40" as="geometry" />
        </mxCell>
        <mxCell id="A7PrPP81Uj46-MuFtexK-10" style="edgeStyle=orthogonalEdgeStyle;rounded=0;orthogonalLoop=1;jettySize=auto;html=1;exitX=1;exitY=0.5;exitDx=0;exitDy=0;entryX=0;entryY=0.5;entryDx=0;entryDy=0;" edge="1" parent="1" source="A7PrPP81Uj46-MuFtexK-8" target="A7PrPP81Uj46-MuFtexK-3">
          <mxGeometry relative="1" as="geometry" />
        </mxCell>
        <mxCell id="A7PrPP81Uj46-MuFtexK-8" value="账户验证" style="rounded=0;whiteSpace=wrap;html=1;" vertex="1" parent="1">
          <mxGeometry x="200" y="280" width="80" height="40" as="geometry" />
        </mxCell>
        <mxCell id="A7PrPP81Uj46-MuFtexK-13" style="edgeStyle=orthogonalEdgeStyle;rounded=0;orthogonalLoop=1;jettySize=auto;html=1;exitX=1;exitY=0.5;exitDx=0;exitDy=0;entryX=0;entryY=0.5;entryDx=0;entryDy=0;" edge="1" parent="1" source="A7PrPP81Uj46-MuFtexK-11" target="A7PrPP81Uj46-MuFtexK-7">
          <mxGeometry relative="1" as="geometry" />
        </mxCell>
        <mxCell id="A7PrPP81Uj46-MuFtexK-11" value="运维甲" style="rounded=0;whiteSpace=wrap;html=1;" vertex="1" parent="1">
          <mxGeometry x="80" y="160" width="80" height="40" as="geometry" />
        </mxCell>
        <mxCell id="A7PrPP81Uj46-MuFtexK-14" style="edgeStyle=orthogonalEdgeStyle;rounded=0;orthogonalLoop=1;jettySize=auto;html=1;exitX=1;exitY=0.5;exitDx=0;exitDy=0;entryX=0;entryY=0.5;entryDx=0;entryDy=0;" edge="1" parent="1" source="A7PrPP81Uj46-MuFtexK-12" target="A7PrPP81Uj46-MuFtexK-8">
          <mxGeometry relative="1" as="geometry" />
        </mxCell>
        <mxCell id="A7PrPP81Uj46-MuFtexK-12" value="运维乙" style="rounded=0;whiteSpace=wrap;html=1;" vertex="1" parent="1">
          <mxGeometry x="80" y="280" width="80" height="40" as="geometry" />
        </mxCell>
        <mxCell id="A7PrPP81Uj46-MuFtexK-19" style="edgeStyle=orthogonalEdgeStyle;rounded=0;orthogonalLoop=1;jettySize=auto;html=1;exitX=1;exitY=0.5;exitDx=0;exitDy=0;entryX=0;entryY=0.5;entryDx=0;entryDy=0;" edge="1" parent="1" source="A7PrPP81Uj46-MuFtexK-18" target="A7PrPP81Uj46-MuFtexK-1">
          <mxGeometry relative="1" as="geometry" />
        </mxCell>
        <mxCell id="A7PrPP81Uj46-MuFtexK-18" value="账户验证" style="rounded=0;whiteSpace=wrap;html=1;" vertex="1" parent="1">
          <mxGeometry x="480" y="220" width="80" height="40" as="geometry" />
        </mxCell>
      </root>
    </mxGraphModel>
  </diagram>
</mxfile>
